<?xml version="1.0" standalone="no"?>
<!DOCTYPE svg PUBLIC "-//W3C//DTD SVG 20010904//EN"
 "http://www.w3.org/TR/2001/REC-SVG-20010904/DTD/svg10.dtd">
<svg version="1.0" xmlns="http://www.w3.org/2000/svg"
 width="940.000000pt" height="940.000000pt" viewBox="0 0 940.000000 940.000000"
 preserveAspectRatio="xMidYMid meet">
<metadata>
Created by potrace 1.14, written by Peter Selinger 2001-2017
</metadata>
<g transform="translate(0.000000,940.000000) scale(0.100000,-0.100000)"
fill="#000000" stroke="none">
<path d="M4460 8243 c-700 -49 -1334 -281 -1885 -690 -129 -96 -265 -213 -265
-229 0 -9 -4 -12 -10 -9 -5 3 -10 1 -10 -4 0 -6 -3 -10 -7 -10 -21 3 -24 -3
-12 -18 10 -11 10 -14 2 -9 -8 4 -13 2 -13 -4 0 -6 -5 -8 -12 -4 -10 6 -10 5
-1 -8 13 -15 8 -28 -11 -28 -6 0 -5 4 2 9 11 6 10 10 -4 15 -10 4 -15 4 -11 0
4 -5 -3 -14 -15 -22 -14 -8 -16 -11 -5 -8 11 3 15 2 12 -4 -3 -6 -14 -10 -23
-10 -28 0 -194 -182 -339 -371 -367 -477 -606 -1050 -703 -1684 -31 -198 -39
-673 -16 -895 15 -139 66 -431 83 -470 3 -8 5 -22 4 -30 -2 -13 -1 -13 9 0 10
12 11 11 7 -8 -4 -18 -3 -21 7 -12 10 7 20 5 37 -10 l24 -21 -28 17 c-34 20
-35 9 -2 -21 18 -18 21 -24 10 -29 -20 -7 -15 -48 5 -41 11 4 10 1 -2 -9 -21
-15 -24 -36 -5 -36 8 0 7 -4 -3 -10 -14 -9 -7 -15 15 -10 6 1 5 -4 -2 -10 -12
-13 27 -143 82 -272 15 -34 36 -85 48 -113 11 -27 26 -54 32 -60 7 -5 10 -15
8 -21 -2 -7 3 -19 12 -28 9 -9 14 -16 10 -16 -8 0 104 -210 122 -228 7 -7 13
-18 13 -24 0 -5 7 -7 16 -4 12 5 14 1 9 -17 -7 -22 -7 -22 9 -2 15 19 15 19
12 -12 -2 -18 1 -30 5 -27 5 3 9 0 9 -7 0 -7 3 -10 6 -7 3 4 1 16 -6 27 -6 13
-7 21 -1 21 5 0 13 -9 16 -20 3 -11 11 -20 16 -20 6 0 8 4 5 8 -3 5 1 9 9 9 9
0 11 -4 6 -11 -4 -6 -8 -19 -8 -28 0 -15 3 -15 16 -5 12 9 13 9 7 -1 -4 -7 -2
-12 6 -12 9 0 9 -3 -2 -10 -13 -8 -13 -10 1 -10 9 0 20 -7 23 -16 3 -8 2 -13
-3 -10 -17 11 3 -49 21 -62 10 -7 16 -17 13 -22 -3 -4 0 -11 5 -13 6 -3 5 -4
-2 -3 -7 2 -13 9 -13 16 0 7 -7 15 -15 17 -13 4 -13 3 0 -6 8 -6 11 -11 6 -11
-5 0 -3 -7 4 -15 7 -8 9 -15 5 -15 -4 0 -2 -7 5 -15 7 -8 16 -13 20 -10 4 3 7
-2 6 -9 -4 -46 401 -485 594 -642 454 -371 959 -617 1515 -738 285 -62 371
-71 750 -71 384 0 464 8 766 75 308 68 571 163 854 309 1263 650 2022 1980
1946 3405 -13 233 -31 367 -77 581 -34 158 -118 451 -135 469 -5 6 -9 18 -9
28 0 10 -7 18 -17 18 -15 0 -16 2 -3 10 11 7 11 10 2 10 -7 0 -11 4 -7 9 3 5
0 13 -6 17 -7 4 -9 3 -6 -3 3 -5 0 -10 -8 -10 -8 0 -12 4 -9 9 3 5 -2 19 -13
30 -10 12 -12 18 -5 14 8 -5 12 0 12 13 0 12 -5 21 -11 21 -5 0 -7 6 -3 13 5
7 0 6 -11 -3 -17 -14 -18 -13 -12 2 4 11 0 22 -11 28 -16 11 -16 11 1 6 10 -3
16 -2 12 3 -3 5 1 12 7 15 7 3 -3 3 -22 1 -19 -2 -29 -2 -22 1 17 8 16 58 -1
51 -10 -4 -13 2 -9 19 2 14 0 24 -7 24 -7 0 -9 -4 -6 -10 3 -5 1 -10 -5 -10
-11 0 -10 8 8 60 3 9 -1 8 -10 -4 -14 -17 -15 -17 -21 -2 -4 10 -3 15 3 11 11
-7 9 23 -3 43 -5 6 -5 12 -1 12 4 0 0 8 -9 18 -8 9 -16 21 -16 27 0 5 -8 12
-18 16 -10 4 -12 8 -5 8 6 1 12 6 12 12 0 5 -4 8 -9 5 -5 -3 -12 1 -15 10 -4
10 -2 13 6 8 6 -4 0 12 -12 34 -24 42 -44 57 -34 25 5 -15 4 -16 -5 -3 -6 9
-7 18 -1 24 6 6 1 16 -12 28 -12 10 -18 18 -14 18 24 0 -142 240 -298 430
-105 129 -366 384 -511 499 -431 343 -919 579 -1441 695 -189 42 -316 61 -509
75 -128 10 -385 12 -495 4z m3368 -1926 c-1 -2 4 -12 12 -22 14 -17 14 -17 -8
-4 -12 8 -18 15 -12 17 6 2 7 9 3 15 -3 7 -3 9 1 5 4 -3 6 -8 4 -11z m69 -173
c-3 -3 -12 -4 -19 -1 -8 3 -5 6 6 6 11 1 17 -2 13 -5z m-6597 -2484 c0 -5 -5
-10 -11 -10 -5 0 -7 5 -4 10 3 6 8 10 11 10 2 0 4 -4 4 -10z m510 -1045 c0 -2
-6 -5 -13 -8 -8 -3 -14 1 -14 8 0 7 6 11 14 8 7 -3 13 -6 13 -8z"/>
<path d="M7975 6000 c3 -5 8 -10 11 -10 2 0 4 5 4 10 0 6 -5 10 -11 10 -5 0
-7 -4 -4 -10z"/>
<path d="M1241 3707 c2 -1 13 -9 24 -17 19 -14 19 -14 6 3 -7 9 -18 17 -24 17
-6 0 -8 -1 -6 -3z"/>
<path d="M1696 2703 c-6 -14 -5 -15 5 -6 7 7 10 15 7 18 -3 3 -9 -2 -12 -12z"/>
<path d="M1741 2644 c0 -11 3 -14 6 -6 3 7 2 16 -1 19 -3 4 -6 -2 -5 -13z"/>
</g>
</svg>
